<?xml version="1.0" encoding="utf-8"?>
<svg id="master-artboard" viewBox="0 0 1826.7493896484375 1450.68212890625" version="1.1" xmlns="http://www.w3.org/2000/svg" x="0px" y="0px" style="enable-background:new 0 0 1400 980;" width="1826.7493896484375px" height="1450.68212890625px"><defs><style id="ee-google-fonts">@import url(https://fonts.googleapis.com/css?family=Bungee+Outline:400|Gruppo:400);</style></defs><rect id="ee-background" x="0" y="0" width="1826.7493896484375" height="1450.68212890625" style="fill: rgb(255, 219, 128); fill-opacity: 1; pointer-events: none;"/>








































<g transform="matrix(1.3054184913635254, 0, 0, 1.3054184913635254, 100.85124048840112, 341.61217051245444)"><g transform="matrix(1, 0, 0, 1, -66.18340301513672, -582.4139404296875)"><g transform="matrix(1, 0, 0, 1, 0, 0)">
	<path d="M 495.899994 604.599976 H 849.100006 V 945.599976 H 495.899994 V 604.599976 Z" fill="none"/>
	<path fill="#173852" d="M587.2,909c10.1,0,18.3,8.2,18.3,18.3c0,10.1-8.2,18.3-18.3,18.3c-10.1,0-18.3-8.2-18.3-18.3&#10;&#9;&#9;C568.9,917.2,577.1,909,587.2,909L587.2,909z"/>
	<path fill="#173852" d="M806.4,909c10.1,0,18.3,8.2,18.3,18.3c0,10.1-8.2,18.3-18.3,18.3c-10.1,0-18.3-8.2-18.3-18.3&#10;&#9;&#9;C788.2,917.2,796.3,909,806.4,909L806.4,909z"/>
	<path fill="#C8CFE2" d="M587.2,933.4L587.2,933.4c-3.5,0-6.6-2.5-7.3-6L575,903h24.4l-4.9,24.5&#10;&#9;&#9;C593.8,930.9,590.8,933.4,587.2,933.4L587.2,933.4z"/>
	<path fill="#C8CFE2" d="M806.4,933.4L806.4,933.4c-3.5,0-6.6-2.5-7.3-6l-4.9-24.5h24.4l-4.9,24.5C813,930.9,810,933.4,806.4,933.4&#10;&#9;&#9;L806.4,933.4z"/>
	<path fill="#C97F20" d="M843.7,677.7l-297.5-36.4l-5.8-19.3c-2-6.5-7.3-11.3-13.9-12.6l-23.3-4.7c-3.3-0.7-6.5,1.5-7.2,4.8&#10;&#9;&#9;c-0.7,3.3,1.5,6.5,4.8,7.2l23.3,4.7c2.2,0.4,4,2.1,4.6,4.2l58,191.5L555,876c-3.1,5.7-2.9,12.5,0.4,18c3.3,5.6,9.2,8.9,15.7,8.9&#10;&#9;&#9;h253.6c3.4,0,6.1-2.7,6.1-6.1c0-3.4-2.7-6.1-6.1-6.1H571.1c-3.1,0-4.7-2.1-5.2-3c-0.5-0.9-1.6-3.3-0.1-6l31.4-58.3l229-17.2&#10;&#9;&#9;c9.5-0.7,16.9-8.7,16.9-18.2v-98.3c0,0,0,0,0,0c3,0,5.7-2.3,6-5.4C849.4,681.1,847,678.1,843.7,677.7z M643.3,732.5h-28.5&#10;&#9;&#9;L599.2,660l35.5,4.3L643.3,732.5z M550.1,654l36.4,4.5l16,74h-28.5L550.1,654z M597.7,811.3l-20.2-66.6H605l14,65L597.7,811.3z&#10;&#9;&#9; M631.3,808.7l-13.8-64.1h27.4l7.9,62.5L631.3,808.7z M647.2,665.9l31.5,3.9l2.6,62.7h-25.7L647.2,665.9z M665,806.2l-7.8-61.6&#10;&#9;&#9;h24.6l2.5,60.1L665,806.2z M718.1,802.2l-21.7,1.6l-2.5-59.2h24.1V802.2z M693.5,732.5l-2.5-61.2l27.2,3.3v57.9H693.5z&#10;&#9;&#9; M756.3,799.4l-26,2v-56.7h26V799.4z M730.3,732.5v-56.4l26,3.2v53.2H730.3z M794.2,796.5l-25.8,1.9v-53.8h25.8V796.5z&#10;&#9;&#9; M768.5,732.5v-51.7l25.8,3.2v48.5H768.5z M830.8,788.1c0,3.2-2.5,5.8-5.6,6.1l-18.7,1.4v-51h24.4V788.1z M806.4,732.5v-47.1&#10;&#9;&#9;l24.4,3v44.1H806.4z"/>
</g></g></g><path d="M 1204.8726806640625 836.7109985351562" style="fill: rgb(237, 193, 98); fill-opacity: 1; stroke: rgb(0, 0, 0); stroke-opacity: 1; stroke-width: 0; paint-order: fill;" transform="matrix(1, 0, 0, 1, -0.00006103515625, 85.47808837890625)"/><path d="M 804.4244995117188 1063.239990234375 C 804.037841796875 1063.239990234375 803.7578125 1063.1533203125 803.58447265625 1062.97998046875 C 803.4111328125 1062.800048828125 803.324462890625 1062.52001953125 803.324462890625 1062.1400146484375 L 803.324462890625 1046.5799560546875 C 803.324462890625 1046.199951171875 803.4111328125 1045.9200439453125 803.58447265625 1045.739990234375 C 803.7578125 1045.566650390625 804.037841796875 1045.47998046875 804.4244995117188 1045.47998046875 L 812.08447265625 1045.47998046875 C 813.7445068359375 1045.47998046875 814.9678344726562 1045.8033447265625 815.7544555664062 1046.449951171875 C 816.5344848632812 1047.0966796875 816.9244995117188 1048.07666015625 816.9244995117188 1049.3900146484375 L 816.9244995117188 1050.5400390625 C 816.9244995117188 1051.1199951171875 816.844482421875 1051.6099853515625 816.6845092773438 1052.010009765625 C 816.5244750976562 1052.4100341796875 816.2844848632812 1052.7366943359375 815.9644775390625 1052.989990234375 C 816.8311767578125 1053.1966552734375 817.477783203125 1053.61328125 817.9044799804688 1054.239990234375 C 818.324462890625 1054.86669921875 818.5344848632812 1055.739990234375 818.5344848632812 1056.8599853515625 L 818.5344848632812 1059.06005859375 C 818.5344848632812 1060.473388671875 818.1378173828125 1061.5233154296875 817.344482421875 1062.2099609375 C 816.5578002929688 1062.8966064453125 815.324462890625 1063.239990234375 813.6444702148438 1063.239990234375 L 804.4244995117188 1063.239990234375 M 813.6444702148438 1063 C 815.2244873046875 1063 816.3944702148438 1062.6800537109375 817.1544799804688 1062.0400390625 C 817.9144897460938 1061.4000244140625 818.2944946289062 1060.4066162109375 818.2944946289062 1059.06005859375 L 818.2944946289062 1056.8599853515625 C 818.2944946289062 1055.6866455078125 818.0477905273438 1054.796630859375 817.5545043945312 1054.18994140625 C 817.0545043945312 1053.5833740234375 816.2944946289062 1053.2332763671875 815.2744750976562 1053.1400146484375 C 815.7544555664062 1052.9266357421875 816.1111450195312 1052.6099853515625 816.344482421875 1052.18994140625 C 816.5711669921875 1051.7633056640625 816.6845092773438 1051.21337890625 816.6845092773438 1050.5400390625 L 816.6845092773438 1049.3900146484375 C 816.6845092773438 1048.143310546875 816.3111572265625 1047.219970703125 815.564453125 1046.6199951171875 C 814.8111572265625 1046.02001953125 813.651123046875 1045.719970703125 812.08447265625 1045.719970703125 L 804.4244995117188 1045.719970703125 C 804.1177978515625 1045.719970703125 803.8978271484375 1045.78662109375 803.7644653320312 1045.9200439453125 C 803.6311645507812 1046.06005859375 803.564453125 1046.280029296875 803.564453125 1046.5799560546875 L 803.564453125 1062.1400146484375 C 803.564453125 1062.43994140625 803.6311645507812 1062.6600341796875 803.7644653320312 1062.800048828125 C 803.8978271484375 1062.933349609375 804.1177978515625 1063 804.4244995117188 1063 L 813.6444702148438 1063 M 812.6845092773438 1060.8399658203125 L 806.2244873046875 1060.8399658203125 L 806.2244873046875 1047.8800048828125 L 811.094482421875 1047.8800048828125 C 811.7544555664062 1047.8800048828125 812.2911376953125 1047.9466552734375 812.7044677734375 1048.0799560546875 C 813.1177978515625 1048.219970703125 813.4378051757812 1048.4066162109375 813.6644897460938 1048.6400146484375 C 813.8911743164062 1048.86669921875 814.0444946289062 1049.13330078125 814.1244506835938 1049.43994140625 C 814.2044677734375 1049.7467041015625 814.2445068359375 1050.0733642578125 814.2445068359375 1050.4200439453125 L 814.2445068359375 1051.9599609375 C 814.2445068359375 1052.43994140625 814.1578369140625 1052.8800048828125 813.9844970703125 1053.280029296875 C 813.8178100585938 1053.6800537109375 813.3911743164062 1053.9666748046875 812.7044677734375 1054.1400146484375 C 813.3577880859375 1054.1400146484375 813.8944702148438 1054.2099609375 814.314453125 1054.3499755859375 C 814.727783203125 1054.4832763671875 815.0477905273438 1054.67333984375 815.2744750976562 1054.9200439453125 C 815.4945068359375 1055.17333984375 815.6411743164062 1055.4666748046875 815.7144775390625 1055.800048828125 C 815.787841796875 1056.13330078125 815.824462890625 1056.5 815.824462890625 1056.9000244140625 L 815.824462890625 1058.43994140625 C 815.824462890625 1058.7933349609375 815.7844848632812 1059.11669921875 815.7044677734375 1059.4100341796875 C 815.6244506835938 1059.7099609375 815.477783203125 1059.96337890625 815.2644653320312 1060.1700439453125 C 815.0444946289062 1060.376708984375 814.727783203125 1060.5400390625 814.314453125 1060.6600341796875 C 813.8944702148438 1060.780029296875 813.3511352539062 1060.8399658203125 812.6845092773438 1060.8399658203125 M 811.094482421875 1048.1199951171875 L 806.4644775390625 1048.1199951171875 L 806.4644775390625 1054.1400146484375 L 811.094482421875 1054.1400146484375 C 811.7544555664062 1054.1400146484375 812.2744750976562 1054.0799560546875 812.6544799804688 1053.9599609375 C 813.0411376953125 1053.8399658203125 813.33447265625 1053.6800537109375 813.5344848632812 1053.47998046875 C 813.7344970703125 1053.280029296875 813.8611450195312 1053.050048828125 813.9144897460938 1052.7900390625 C 813.9744873046875 1052.5233154296875 814.0044555664062 1052.2467041015625 814.0044555664062 1051.9599609375 L 814.0044555664062 1050.4200439453125 C 814.0044555664062 1049.780029296875 813.8178100585938 1049.2366943359375 813.4444580078125 1048.7900390625 C 813.0778198242188 1048.3433837890625 812.2944946289062 1048.1199951171875 811.094482421875 1048.1199951171875 M 808.9644775390625 1049.800048828125 L 811.0044555664062 1049.800048828125 C 811.3045043945312 1049.800048828125 811.5311279296875 1049.8800048828125 811.6845092773438 1050.0400390625 C 811.8378295898438 1050.199951171875 811.9144897460938 1050.43994140625 811.9144897460938 1050.760009765625 L 811.9144897460938 1051.4300537109375 C 811.9144897460938 1051.75 811.8378295898438 1051.989990234375 811.6845092773438 1052.1500244140625 C 811.5311279296875 1052.31005859375 811.3045043945312 1052.3900146484375 811.0044555664062 1052.3900146484375 L 808.9644775390625 1052.3900146484375 L 808.9644775390625 1049.800048828125 M 811.0044555664062 1050.0400390625 L 809.2044677734375 1050.0400390625 L 809.2044677734375 1052.1500244140625 L 811.0044555664062 1052.1500244140625 C 811.2445068359375 1052.1500244140625 811.4144897460938 1052.0899658203125 811.5144653320312 1051.969970703125 C 811.6211547851562 1051.8499755859375 811.6744995117188 1051.6700439453125 811.6744995117188 1051.4300537109375 L 811.6744995117188 1050.760009765625 C 811.6744995117188 1050.52001953125 811.6211547851562 1050.3399658203125 811.5144653320312 1050.219970703125 C 811.4144897460938 1050.0999755859375 811.2445068359375 1050.0400390625 811.0044555664062 1050.0400390625 M 812.7044677734375 1054.3800048828125 L 806.4644775390625 1054.3800048828125 L 806.4644775390625 1060.5999755859375 L 812.6845092773438 1060.5999755859375 C 813.8844604492188 1060.5999755859375 814.6677856445312 1060.4033203125 815.0344848632812 1060.010009765625 C 815.401123046875 1059.61669921875 815.58447265625 1059.0933837890625 815.58447265625 1058.43994140625 L 815.58447265625 1056.9000244140625 C 815.58447265625 1056.1800537109375 815.4044799804688 1055.5799560546875 815.0444946289062 1055.0999755859375 C 814.6845092773438 1054.6199951171875 813.9044799804688 1054.3800048828125 812.7044677734375 1054.3800048828125 M 808.9644775390625 1056.0899658203125 L 812.08447265625 1056.0899658203125 C 812.3844604492188 1056.0899658203125 812.6111450195312 1056.1666259765625 812.7644653320312 1056.3199462890625 C 812.9177856445312 1056.4666748046875 812.9945068359375 1056.699951171875 812.9945068359375 1057.02001953125 L 812.9945068359375 1057.9599609375 C 812.9945068359375 1058.280029296875 812.9177856445312 1058.52001953125 812.7644653320312 1058.6800537109375 C 812.6111450195312 1058.8399658203125 812.3844604492188 1058.9200439453125 812.08447265625 1058.9200439453125 L 808.9644775390625 1058.9200439453125 L 808.9644775390625 1056.0899658203125 M 812.08447265625 1056.3299560546875 L 809.2044677734375 1056.3299560546875 L 809.2044677734375 1058.6800537109375 L 812.08447265625 1058.6800537109375 C 812.324462890625 1058.6800537109375 812.4945068359375 1058.6199951171875 812.594482421875 1058.5 C 812.701171875 1058.3800048828125 812.7544555664062 1058.199951171875 812.7544555664062 1057.9599609375 L 812.7544555664062 1057.02001953125 C 812.7544555664062 1056.780029296875 812.6978149414062 1056.606689453125 812.58447265625 1056.5 C 812.4711303710938 1056.38671875 812.3045043945312 1056.3299560546875 812.08447265625 1056.3299560546875 ZM 835.91357421875 1046.5799560546875 L 835.91357421875 1058.4599609375 C 835.91357421875 1059.21337890625 835.8035888671875 1059.9066162109375 835.5836181640625 1060.5400390625 C 835.3702392578125 1061.17333984375 834.9835815429688 1061.71337890625 834.423583984375 1062.1600341796875 C 833.8635864257812 1062.606689453125 833.0836181640625 1062.9599609375 832.0836181640625 1063.219970703125 C 831.0836181640625 1063.473388671875 829.8069458007812 1063.5999755859375 828.2536010742188 1063.5999755859375 C 826.7002563476562 1063.5999755859375 825.423583984375 1063.473388671875 824.423583984375 1063.219970703125 C 823.423583984375 1062.9599609375 822.6436157226562 1062.606689453125 822.0836181640625 1062.1600341796875 C 821.5235595703125 1061.71337890625 821.1369018554688 1061.17333984375 820.923583984375 1060.5400390625 C 820.7102661132812 1059.9066162109375 820.6035766601562 1059.21337890625 820.6035766601562 1058.4599609375 L 820.6035766601562 1046.5799560546875 C 820.6035766601562 1046.199951171875 820.6902465820312 1045.9200439453125 820.8635864257812 1045.739990234375 C 821.0369262695312 1045.566650390625 821.31689453125 1045.47998046875 821.70361328125 1045.47998046875 L 825.4735717773438 1045.47998046875 C 825.8535766601562 1045.47998046875 826.1336059570312 1045.566650390625 826.3135986328125 1045.739990234375 C 826.4869384765625 1045.9200439453125 826.5736083984375 1046.199951171875 826.5736083984375 1046.5799560546875 L 826.5736083984375 1057.530029296875 C 826.5736083984375 1057.816650390625 826.6968994140625 1058.03662109375 826.943603515625 1058.18994140625 C 827.1968994140625 1058.3433837890625 827.6502685546875 1058.4200439453125 828.3035888671875 1058.4200439453125 C 828.9769287109375 1058.4200439453125 829.4369506835938 1058.3433837890625 829.68359375 1058.18994140625 C 829.9302368164062 1058.03662109375 830.0535888671875 1057.816650390625 830.0535888671875 1057.530029296875 L 830.0535888671875 1046.5799560546875 C 830.0535888671875 1046.199951171875 830.1369018554688 1045.9200439453125 830.3035888671875 1045.739990234375 C 830.4769287109375 1045.566650390625 830.7636108398438 1045.47998046875 831.16357421875 1045.47998046875 L 834.8035888671875 1045.47998046875 C 835.1902465820312 1045.47998046875 835.4702758789062 1045.566650390625 835.6436157226562 1045.739990234375 C 835.8236083984375 1045.9200439453125 835.91357421875 1046.199951171875 835.91357421875 1046.5799560546875 M 835.673583984375 1058.4599609375 L 835.673583984375 1046.5799560546875 C 835.673583984375 1046.280029296875 835.6035766601562 1046.06005859375 835.4635620117188 1045.9200439453125 C 835.3302612304688 1045.78662109375 835.1102294921875 1045.719970703125 834.8035888671875 1045.719970703125 L 831.16357421875 1045.719970703125 C 830.85693359375 1045.719970703125 830.6369018554688 1045.78662109375 830.5036010742188 1045.9200439453125 C 830.3635864257812 1046.06005859375 830.2935791015625 1046.280029296875 830.2935791015625 1046.5799560546875 L 830.2935791015625 1057.530029296875 C 830.2935791015625 1057.8499755859375 830.173583984375 1058.11669921875 829.93359375 1058.3299560546875 C 829.693603515625 1058.550048828125 829.1502685546875 1058.6600341796875 828.3035888671875 1058.6600341796875 C 827.4702758789062 1058.6600341796875 826.93359375 1058.550048828125 826.693603515625 1058.3299560546875 C 826.45361328125 1058.11669921875 826.3336181640625 1057.8499755859375 826.3336181640625 1057.530029296875 L 826.3336181640625 1046.5799560546875 C 826.3336181640625 1046.280029296875 826.2669067382812 1046.06005859375 826.1336059570312 1045.9200439453125 C 825.9935913085938 1045.78662109375 825.7735595703125 1045.719970703125 825.4735717773438 1045.719970703125 L 821.70361328125 1045.719970703125 C 821.3969116210938 1045.719970703125 821.1769409179688 1045.78662109375 821.0435791015625 1045.9200439453125 C 820.9102783203125 1046.06005859375 820.8435668945312 1046.280029296875 820.8435668945312 1046.5799560546875 L 820.8435668945312 1058.4599609375 C 820.8435668945312 1059.199951171875 820.9502563476562 1059.8699951171875 821.16357421875 1060.469970703125 C 821.3768920898438 1061.0699462890625 821.76025390625 1061.5799560546875 822.3135986328125 1062 C 822.866943359375 1062.4266357421875 823.6235961914062 1062.760009765625 824.5836181640625 1063 C 825.5435791015625 1063.239990234375 826.7669067382812 1063.3599853515625 828.2536010742188 1063.3599853515625 C 829.740234375 1063.3599853515625 830.9635620117188 1063.239990234375 831.923583984375 1063 C 832.8836059570312 1062.760009765625 833.6402587890625 1062.4266357421875 834.193603515625 1062 C 834.7469482421875 1061.5799560546875 835.1302490234375 1061.0699462890625 835.3435668945312 1060.469970703125 C 835.5635986328125 1059.8699951171875 835.673583984375 1059.199951171875 835.673583984375 1058.4599609375 M 823.4835815429688 1047.8800048828125 L 823.7235717773438 1047.8800048828125 L 823.7235717773438 1057.8900146484375 C 823.7235717773438 1058.7833251953125 824.0369262695312 1059.5067138671875 824.66357421875 1060.06005859375 C 825.2969360351562 1060.61328125 826.5036010742188 1060.8900146484375 828.2835693359375 1060.8900146484375 C 830.0569458007812 1060.8900146484375 831.2636108398438 1060.61328125 831.903564453125 1060.06005859375 C 832.5435791015625 1059.5067138671875 832.8635864257812 1058.7833251953125 832.8635864257812 1057.8900146484375 L 832.8635864257812 1047.8800048828125 L 833.1035766601562 1047.8800048828125 L 833.1035766601562 1057.8900146484375 C 833.1035766601562 1058.8499755859375 832.7669067382812 1059.6300048828125 832.0935668945312 1060.22998046875 C 831.4202270507812 1060.8299560546875 830.1502685546875 1061.1300048828125 828.2835693359375 1061.1300048828125 C 826.4102783203125 1061.1300048828125 825.1402587890625 1060.8299560546875 824.4735717773438 1060.22998046875 C 823.8135986328125 1059.6300048828125 823.4835815429688 1058.8499755859375 823.4835815429688 1057.8900146484375 L 823.4835815429688 1047.8800048828125 ZM 843.7345581054688 1063.239990234375 C 843.3345336914062 1063.239990234375 843.0512084960938 1063.1533203125 842.884521484375 1062.97998046875 C 842.711181640625 1062.800048828125 842.62451171875 1062.52001953125 842.62451171875 1062.1400146484375 L 842.62451171875 1059.1400146484375 L 839.0045166015625 1054.2900390625 C 838.6178588867188 1053.776611328125 838.3612060546875 1053.32666015625 838.2345581054688 1052.93994140625 C 838.1078491210938 1052.56005859375 838.0445556640625 1051.9766845703125 838.0445556640625 1051.18994140625 L 838.0445556640625 1046.5799560546875 C 838.0445556640625 1046.199951171875 838.1312255859375 1045.9200439453125 838.3045043945312 1045.739990234375 C 838.4845581054688 1045.566650390625 838.7645263671875 1045.47998046875 839.14453125 1045.47998046875 L 842.8445434570312 1045.47998046875 C 843.231201171875 1045.47998046875 843.5111694335938 1045.566650390625 843.6845092773438 1045.739990234375 C 843.8578491210938 1045.9200439453125 843.9445190429688 1046.199951171875 843.9445190429688 1046.5799560546875 L 843.9445190429688 1050.52001953125 C 843.9445190429688 1050.6666259765625 843.9545288085938 1050.81005859375 843.9745483398438 1050.949951171875 C 843.9878540039062 1051.0966796875 844.0345458984375 1051.25 844.114501953125 1051.4100341796875 L 845.2445068359375 1053.1400146484375 C 845.2911987304688 1053.2332763671875 845.3445434570312 1053.3033447265625 845.404541015625 1053.3499755859375 C 845.4578857421875 1053.3966064453125 845.5245361328125 1053.4200439453125 845.6045532226562 1053.4200439453125 L 845.8445434570312 1053.4200439453125 C 845.9244995117188 1053.4200439453125 845.9912109375 1053.3966064453125 846.0445556640625 1053.3499755859375 C 846.1045532226562 1053.3033447265625 846.16455078125 1053.2332763671875 846.2245483398438 1053.1400146484375 L 847.3345336914062 1051.4100341796875 C 847.41455078125 1051.25 847.461181640625 1051.0966796875 847.4745483398438 1050.949951171875 C 847.4945068359375 1050.81005859375 847.5045166015625 1050.6666259765625 847.5045166015625 1050.52001953125 L 847.5045166015625 1046.5799560546875 C 847.5045166015625 1046.199951171875 847.5911865234375 1045.9200439453125 847.7645263671875 1045.739990234375 C 847.9378662109375 1045.566650390625 848.2178344726562 1045.47998046875 848.6045532226562 1045.47998046875 L 852.1845092773438 1045.47998046875 C 852.5645141601562 1045.47998046875 852.8445434570312 1045.566650390625 853.0245361328125 1045.739990234375 C 853.1978759765625 1045.9200439453125 853.2845458984375 1046.199951171875 853.2845458984375 1046.5799560546875 L 853.2845458984375 1051.18994140625 C 853.2845458984375 1051.9766845703125 853.22119140625 1052.56005859375 853.0945434570312 1052.93994140625 C 852.9678344726562 1053.32666015625 852.711181640625 1053.776611328125 852.3245239257812 1054.2900390625 L 848.7245483398438 1059.1600341796875 L 848.7245483398438 1062.1400146484375 C 848.7245483398438 1062.52001953125 848.6378784179688 1062.800048828125 848.4645385742188 1062.97998046875 C 848.2845458984375 1063.1533203125 848.0045166015625 1063.239990234375 847.62451171875 1063.239990234375 L 843.7345581054688 1063.239990234375 M 847.62451171875 1063 C 847.9244995117188 1063 848.14453125 1062.933349609375 848.2845458984375 1062.800048828125 C 848.4178466796875 1062.6600341796875 848.4845581054688 1062.43994140625 848.4845581054688 1062.1400146484375 L 848.4845581054688 1059.0899658203125 L 852.134521484375 1054.1400146484375 C 852.4878540039062 1053.6466064453125 852.7278442382812 1053.2166748046875 852.8545532226562 1052.8499755859375 C 852.981201171875 1052.4832763671875 853.0445556640625 1051.9300537109375 853.0445556640625 1051.18994140625 L 853.0445556640625 1046.5799560546875 C 853.0445556640625 1046.280029296875 852.9778442382812 1046.06005859375 852.8445434570312 1045.9200439453125 C 852.7045288085938 1045.78662109375 852.4845581054688 1045.719970703125 852.1845092773438 1045.719970703125 L 848.6045532226562 1045.719970703125 C 848.2978515625 1045.719970703125 848.077880859375 1045.78662109375 847.9445190429688 1045.9200439453125 C 847.8112182617188 1046.06005859375 847.7445068359375 1046.280029296875 847.7445068359375 1046.5799560546875 L 847.7445068359375 1050.52001953125 C 847.7445068359375 1050.6800537109375 847.7345581054688 1050.8466796875 847.7145385742188 1051.02001953125 C 847.701171875 1051.199951171875 847.6378784179688 1051.3699951171875 847.5245361328125 1051.530029296875 L 846.4244995117188 1053.260009765625 C 846.3445434570312 1053.4000244140625 846.2578735351562 1053.5032958984375 846.16455078125 1053.5699462890625 C 846.077880859375 1053.6300048828125 845.97119140625 1053.6600341796875 845.8445434570312 1053.6600341796875 L 845.6045532226562 1053.6600341796875 C 845.4778442382812 1053.6600341796875 845.3712158203125 1053.6300048828125 845.2845458984375 1053.5699462890625 C 845.1912231445312 1053.5032958984375 845.1045532226562 1053.4000244140625 845.0245361328125 1053.260009765625 L 843.9244995117188 1051.530029296875 C 843.8112182617188 1051.3699951171875 843.7478637695312 1051.199951171875 843.7345581054688 1051.02001953125 C 843.7145385742188 1050.8466796875 843.7045288085938 1050.6800537109375 843.7045288085938 1050.52001953125 L 843.7045288085938 1046.5799560546875 C 843.7045288085938 1046.280029296875 843.6378784179688 1046.06005859375 843.5045166015625 1045.9200439453125 C 843.3712158203125 1045.78662109375 843.1511840820312 1045.719970703125 842.8445434570312 1045.719970703125 L 839.14453125 1045.719970703125 C 838.8445434570312 1045.719970703125 838.62451171875 1045.78662109375 838.4845581054688 1045.9200439453125 C 838.3511962890625 1046.06005859375 838.2845458984375 1046.280029296875 838.2845458984375 1046.5799560546875 L 838.2845458984375 1051.18994140625 C 838.2845458984375 1051.9300537109375 838.3445434570312 1052.4832763671875 838.4645385742188 1052.8499755859375 C 838.5845336914062 1053.2166748046875 838.827880859375 1053.6466064453125 839.1945190429688 1054.1400146484375 L 842.864501953125 1059.06005859375 L 842.864501953125 1062.1400146484375 C 842.864501953125 1062.43994140625 842.9345092773438 1062.6600341796875 843.0745239257812 1062.800048828125 C 843.2078857421875 1062.933349609375 843.4278564453125 1063 843.7345581054688 1063 L 847.62451171875 1063 M 845.9645385742188 1056.739990234375 L 845.7945556640625 1056.739990234375 L 845.7945556640625 1060.8399658203125 L 845.5545043945312 1060.8399658203125 L 845.5545043945312 1056.739990234375 L 845.3145141601562 1056.739990234375 C 844.961181640625 1056.739990234375 844.64453125 1056.6600341796875 844.364501953125 1056.5 C 844.0845336914062 1056.3399658203125 843.81787109375 1056.0833740234375 843.5645141601562 1055.72998046875 L 841.2345581054688 1052.489990234375 C 841.0612182617188 1052.25 840.9578857421875 1051.969970703125 840.9244995117188 1051.6500244140625 C 840.8911743164062 1051.3299560546875 840.87451171875 1050.9932861328125 840.87451171875 1050.6400146484375 L 840.87451171875 1047.8800048828125 L 841.114501953125 1047.8800048828125 L 841.114501953125 1050.6400146484375 C 841.114501953125 1050.973388671875 841.1312255859375 1051.2900390625 841.16455078125 1051.5899658203125 C 841.1978759765625 1051.88330078125 841.2945556640625 1052.1500244140625 841.4545288085938 1052.3900146484375 L 843.7845458984375 1055.6300048828125 C 843.9912109375 1055.949951171875 844.231201171875 1056.17333984375 844.5045166015625 1056.300048828125 C 844.7711791992188 1056.433349609375 845.0411987304688 1056.5 845.3145141601562 1056.5 L 845.9645385742188 1056.5 C 846.2711791992188 1056.5 846.5478515625 1056.4300537109375 846.7945556640625 1056.2900390625 C 847.0411987304688 1056.1566162109375 847.2845458984375 1055.9366455078125 847.5245361328125 1055.6300048828125 L 849.9244995117188 1052.3900146484375 C 850.0845336914062 1052.183349609375 850.1812133789062 1051.92333984375 850.2145385742188 1051.6099853515625 C 850.2478637695312 1051.296630859375 850.2645263671875 1050.973388671875 850.2645263671875 1050.6400146484375 L 850.2645263671875 1047.8800048828125 L 850.5045166015625 1047.8800048828125 L 850.5045166015625 1050.6400146484375 C 850.5045166015625 1050.9932861328125 850.4912109375 1051.32666015625 850.4645385742188 1051.6400146484375 C 850.4378662109375 1051.9466552734375 850.3311767578125 1052.22998046875 850.14453125 1052.489990234375 L 847.7445068359375 1055.72998046875 C 847.4845581054688 1056.0833740234375 847.2145385742188 1056.3399658203125 846.9345092773438 1056.5 C 846.654541015625 1056.6600341796875 846.3311767578125 1056.739990234375 845.9645385742188 1056.739990234375 ZM 861.0641479492188 1062.1400146484375 C 861.0641479492188 1062.52001953125 860.97412109375 1062.800048828125 860.7941284179688 1062.97998046875 C 860.6207885742188 1063.1533203125 860.3408203125 1063.239990234375 859.9541625976562 1063.239990234375 L 855.1041259765625 1063.239990234375 C 854.72412109375 1063.239990234375 854.4441528320312 1063.1533203125 854.26416015625 1062.97998046875 C 854.0908203125 1062.800048828125 854.004150390625 1062.52001953125 854.004150390625 1062.1400146484375 L 854.004150390625 1057.260009765625 C 854.004150390625 1056.8599853515625 854.0908203125 1056.57666015625 854.26416015625 1056.4100341796875 C 854.4441528320312 1056.2432861328125 854.72412109375 1056.1600341796875 855.1041259765625 1056.1600341796875 L 859.9541625976562 1056.1600341796875 C 860.3408203125 1056.1600341796875 860.6207885742188 1056.2432861328125 860.7941284179688 1056.4100341796875 C 860.97412109375 1056.57666015625 861.0641479492188 1056.8599853515625 861.0641479492188 1057.260009765625 L 861.0641479492188 1062.1400146484375 M 859.9541625976562 1063 C 860.2608032226562 1063 860.4807739257812 1062.933349609375 860.6141357421875 1062.800048828125 C 860.754150390625 1062.6600341796875 860.8241577148438 1062.43994140625 860.8241577148438 1062.1400146484375 L 860.8241577148438 1057.260009765625 C 860.8241577148438 1056.9599609375 860.754150390625 1056.739990234375 860.6141357421875 1056.5999755859375 C 860.4807739257812 1056.4666748046875 860.2608032226562 1056.4000244140625 859.9541625976562 1056.4000244140625 L 855.1041259765625 1056.4000244140625 C 854.8041381835938 1056.4000244140625 854.5841064453125 1056.4666748046875 854.4441528320312 1056.5999755859375 C 854.310791015625 1056.739990234375 854.244140625 1056.9599609375 854.244140625 1057.260009765625 L 854.244140625 1062.1400146484375 C 854.244140625 1062.43994140625 854.310791015625 1062.6600341796875 854.4441528320312 1062.800048828125 C 854.5841064453125 1062.933349609375 854.8041381835938 1063 855.1041259765625 1063 L 859.9541625976562 1063 M 857.4141235351562 1060.8399658203125 L 857.4141235351562 1058.56005859375 L 857.6541137695312 1058.56005859375 L 857.6541137695312 1060.8399658203125 L 857.4141235351562 1060.8399658203125 ZM 876.4008178710938 1062.1400146484375 C 876.4008178710938 1062.52001953125 876.310791015625 1062.800048828125 876.1307983398438 1062.97998046875 C 875.9574584960938 1063.1533203125 875.677490234375 1063.239990234375 875.2908325195312 1063.239990234375 L 869.4407958984375 1063.239990234375 C 867.3408203125 1063.239990234375 865.7908325195312 1062.816650390625 864.7908325195312 1061.969970703125 C 863.7908325195312 1061.123291015625 863.2908325195312 1059.8333740234375 863.2908325195312 1058.0999755859375 L 863.2908325195312 1050.6400146484375 C 863.2908325195312 1048.893310546875 863.7908325195312 1047.5966796875 864.7908325195312 1046.75 C 865.7908325195312 1045.9033203125 867.3408203125 1045.47998046875 869.4407958984375 1045.47998046875 L 875.2908325195312 1045.47998046875 C 875.677490234375 1045.47998046875 875.9574584960938 1045.566650390625 876.1307983398438 1045.739990234375 C 876.310791015625 1045.9200439453125 876.4008178710938 1046.199951171875 876.4008178710938 1046.5799560546875 L 876.4008178710938 1049.489990234375 C 876.4008178710938 1049.8699951171875 876.310791015625 1050.1500244140625 876.1307983398438 1050.3299560546875 C 875.9574584960938 1050.5032958984375 875.677490234375 1050.5899658203125 875.2908325195312 1050.5899658203125 L 870.4708251953125 1050.5899658203125 C 870.07080078125 1050.5899658203125 869.7674560546875 1050.6666259765625 869.560791015625 1050.8199462890625 C 869.3474731445312 1050.973388671875 869.2407836914062 1051.2166748046875 869.2407836914062 1051.550048828125 L 869.2407836914062 1057.260009765625 C 869.2407836914062 1057.5999755859375 869.3474731445312 1057.836669921875 869.560791015625 1057.969970703125 C 869.7674560546875 1058.1099853515625 870.07080078125 1058.1800537109375 870.4708251953125 1058.1800537109375 L 875.2908325195312 1058.1800537109375 C 875.677490234375 1058.1800537109375 875.9574584960938 1058.2667236328125 876.1307983398438 1058.43994140625 C 876.310791015625 1058.61328125 876.4008178710938 1058.893310546875 876.4008178710938 1059.280029296875 L 876.4008178710938 1062.1400146484375 M 875.2908325195312 1063 C 875.5974731445312 1063 875.8175048828125 1062.933349609375 875.9508056640625 1062.800048828125 C 876.0908203125 1062.6600341796875 876.1608276367188 1062.43994140625 876.1608276367188 1062.1400146484375 L 876.1608276367188 1059.280029296875 C 876.1608276367188 1058.973388671875 876.0908203125 1058.7532958984375 875.9508056640625 1058.6199951171875 C 875.8175048828125 1058.4866943359375 875.5974731445312 1058.4200439453125 875.2908325195312 1058.4200439453125 L 870.4708251953125 1058.4200439453125 C 869.9708251953125 1058.4200439453125 869.600830078125 1058.32666015625 869.3607788085938 1058.1400146484375 C 869.1207885742188 1057.953369140625 869.0007934570312 1057.6600341796875 869.0007934570312 1057.260009765625 L 869.0007934570312 1051.550048828125 C 869.0007934570312 1051.1500244140625 869.1207885742188 1050.8499755859375 869.3607788085938 1050.6500244140625 C 869.600830078125 1050.449951171875 869.9708251953125 1050.3499755859375 870.4708251953125 1050.3499755859375 L 875.2908325195312 1050.3499755859375 C 875.5974731445312 1050.3499755859375 875.8175048828125 1050.2833251953125 875.9508056640625 1050.1500244140625 C 876.0908203125 1050.010009765625 876.1608276367188 1049.7900390625 876.1608276367188 1049.489990234375 L 876.1608276367188 1046.5799560546875 C 876.1608276367188 1046.280029296875 876.0908203125 1046.06005859375 875.9508056640625 1045.9200439453125 C 875.8175048828125 1045.78662109375 875.5974731445312 1045.719970703125 875.2908325195312 1045.719970703125 L 869.4407958984375 1045.719970703125 C 867.4407958984375 1045.719970703125 865.9541625976562 1046.123291015625 864.9808349609375 1046.9300537109375 C 864.01416015625 1047.7366943359375 863.5308227539062 1048.973388671875 863.5308227539062 1050.6400146484375 L 863.5308227539062 1058.0999755859375 C 863.5308227539062 1059.7667236328125 864.01416015625 1061 864.9808349609375 1061.800048828125 C 865.9541625976562 1062.5999755859375 867.4407958984375 1063 869.4407958984375 1063 L 875.2908325195312 1063 M 873.9708251953125 1060.5999755859375 L 873.9708251953125 1060.8399658203125 L 869.9608154296875 1060.8399658203125 C 868.4141235351562 1060.8399658203125 867.387451171875 1060.5999755859375 866.8807983398438 1060.1199951171875 C 866.3741455078125 1059.6400146484375 866.1207885742188 1058.8466796875 866.1207885742188 1057.739990234375 L 866.1207885742188 1051.02001953125 C 866.1207885742188 1049.88671875 866.3775024414062 1049.0799560546875 866.8908081054688 1048.5999755859375 C 867.4041137695312 1048.1199951171875 868.427490234375 1047.8800048828125 869.9608154296875 1047.8800048828125 L 873.9708251953125 1047.8800048828125 L 873.9708251953125 1048.1199951171875 L 869.9608154296875 1048.1199951171875 C 868.5541381835938 1048.1199951171875 867.6041259765625 1048.3399658203125 867.1107788085938 1048.780029296875 C 866.6107788085938 1049.219970703125 866.3607788085938 1049.9666748046875 866.3607788085938 1051.02001953125 L 866.3607788085938 1057.739990234375 C 866.3607788085938 1058.780029296875 866.600830078125 1059.5167236328125 867.080810546875 1059.949951171875 C 867.560791015625 1060.38330078125 868.5208129882812 1060.5999755859375 869.9608154296875 1060.5999755859375 L 873.9708251953125 1060.5999755859375 ZM 893.6323852539062 1050.280029296875 L 893.6323852539062 1058.4599609375 C 893.6323852539062 1059.21337890625 893.5257568359375 1059.9066162109375 893.3123779296875 1060.5400390625 C 893.105712890625 1061.17333984375 892.7190551757812 1061.71337890625 892.1524047851562 1062.1600341796875 C 891.5857543945312 1062.606689453125 890.8024291992188 1062.9599609375 889.8024291992188 1063.219970703125 C 888.8024291992188 1063.473388671875 887.51904296875 1063.5999755859375 885.952392578125 1063.5999755859375 C 884.3790893554688 1063.5999755859375 883.0924072265625 1063.473388671875 882.0924072265625 1063.219970703125 C 881.0924072265625 1062.9599609375 880.30908203125 1062.606689453125 879.742431640625 1062.1600341796875 C 879.1757202148438 1061.71337890625 878.7857666015625 1061.17333984375 878.5723876953125 1060.5400390625 C 878.3524169921875 1059.9066162109375 878.242431640625 1059.21337890625 878.242431640625 1058.4599609375 L 878.242431640625 1050.280029296875 C 878.242431640625 1049.526611328125 878.3524169921875 1048.8333740234375 878.5723876953125 1048.199951171875 C 878.7857666015625 1047.5733642578125 879.1757202148438 1047.030029296875 879.742431640625 1046.5699462890625 C 880.30908203125 1046.11669921875 881.0924072265625 1045.760009765625 882.0924072265625 1045.5 C 883.0924072265625 1045.2467041015625 884.3790893554688 1045.1199951171875 885.952392578125 1045.1199951171875 C 887.51904296875 1045.1199951171875 888.8024291992188 1045.2467041015625 889.8024291992188 1045.5 C 890.8024291992188 1045.760009765625 891.5857543945312 1046.11669921875 892.1524047851562 1046.5699462890625 C 892.7190551757812 1047.030029296875 893.105712890625 1047.5733642578125 893.3123779296875 1048.199951171875 C 893.5257568359375 1048.8333740234375 893.6323852539062 1049.526611328125 893.6323852539062 1050.280029296875 M 893.3923950195312 1058.4599609375 L 893.3923950195312 1050.280029296875 C 893.3923950195312 1049.546630859375 893.2824096679688 1048.8800048828125 893.0623779296875 1048.280029296875 C 892.8490600585938 1047.6800537109375 892.4657592773438 1047.163330078125 891.9124145507812 1046.72998046875 C 891.3590698242188 1046.296630859375 890.5990600585938 1045.9599609375 889.6323852539062 1045.719970703125 C 888.665771484375 1045.47998046875 887.4390869140625 1045.3599853515625 885.952392578125 1045.3599853515625 C 884.4590454101562 1045.3599853515625 883.2257690429688 1045.47998046875 882.2523803710938 1045.719970703125 C 881.279052734375 1045.9599609375 880.5157470703125 1046.296630859375 879.96240234375 1046.72998046875 C 879.4090576171875 1047.163330078125 879.0257568359375 1047.6800537109375 878.8123779296875 1048.280029296875 C 878.5924072265625 1048.8800048828125 878.482421875 1049.546630859375 878.482421875 1050.280029296875 L 878.482421875 1058.4599609375 C 878.482421875 1059.199951171875 878.5924072265625 1059.8699951171875 878.8123779296875 1060.469970703125 C 879.0257568359375 1061.0699462890625 879.4090576171875 1061.5799560546875 879.96240234375 1062 C 880.5157470703125 1062.4266357421875 881.279052734375 1062.760009765625 882.2523803710938 1063 C 883.2257690429688 1063.239990234375 884.4590454101562 1063.3599853515625 885.952392578125 1063.3599853515625 C 887.4390869140625 1063.3599853515625 888.665771484375 1063.239990234375 889.6323852539062 1063 C 890.5990600585938 1062.760009765625 891.3590698242188 1062.4266357421875 891.9124145507812 1062 C 892.4657592773438 1061.5799560546875 892.8490600585938 1061.0699462890625 893.0623779296875 1060.469970703125 C 893.2824096679688 1059.8699951171875 893.3923950195312 1059.199951171875 893.3923950195312 1058.4599609375 M 890.7723999023438 1057.9100341796875 C 890.7723999023438 1058.8699951171875 890.4290771484375 1059.6500244140625 889.742431640625 1060.25 C 889.0557250976562 1060.8499755859375 887.7757568359375 1061.1500244140625 885.9024047851562 1061.1500244140625 C 884.029052734375 1061.1500244140625 882.7557373046875 1060.8499755859375 882.0823974609375 1060.25 C 881.4090576171875 1059.6500244140625 881.0723876953125 1058.8699951171875 881.0723876953125 1057.9100341796875 L 881.0723876953125 1050.8299560546875 C 881.0723876953125 1049.8699951171875 881.4090576171875 1049.0899658203125 882.0823974609375 1048.489990234375 C 882.7557373046875 1047.8900146484375 884.029052734375 1047.5899658203125 885.9024047851562 1047.5899658203125 C 887.7757568359375 1047.5899658203125 889.0557250976562 1047.8900146484375 889.742431640625 1048.489990234375 C 890.4290771484375 1049.0899658203125 890.7723999023438 1049.8699951171875 890.7723999023438 1050.8299560546875 L 890.7723999023438 1057.9100341796875 M 881.3123779296875 1057.9100341796875 C 881.3123779296875 1058.81005859375 881.6323852539062 1059.5333251953125 882.2723999023438 1060.0799560546875 C 882.9124145507812 1060.63330078125 884.1224365234375 1060.9100341796875 885.9024047851562 1060.9100341796875 C 887.6757202148438 1060.9100341796875 888.8923950195312 1060.63330078125 889.5524291992188 1060.0799560546875 C 890.2057495117188 1059.5333251953125 890.5324096679688 1058.81005859375 890.5324096679688 1057.9100341796875 L 890.5324096679688 1050.8299560546875 C 890.5324096679688 1049.9366455078125 890.2057495117188 1049.21337890625 889.5524291992188 1048.6600341796875 C 888.8923950195312 1048.106689453125 887.6757202148438 1047.8299560546875 885.9024047851562 1047.8299560546875 C 884.1224365234375 1047.8299560546875 882.9124145507812 1048.106689453125 882.2723999023438 1048.6600341796875 C 881.6323852539062 1049.21337890625 881.3123779296875 1049.9366455078125 881.3123779296875 1050.8299560546875 L 881.3123779296875 1057.9100341796875 M 883.9324340820312 1057.5999755859375 L 883.9324340820312 1051.1400146484375 C 883.9324340820312 1050.8399658203125 884.0524291992188 1050.5799560546875 884.2924194335938 1050.3599853515625 C 884.5324096679688 1050.1466064453125 885.0857543945312 1050.0400390625 885.952392578125 1050.0400390625 C 886.8123779296875 1050.0400390625 887.3624267578125 1050.1466064453125 887.6024169921875 1050.3599853515625 C 887.8424072265625 1050.5799560546875 887.96240234375 1050.8399658203125 887.96240234375 1051.1400146484375 L 887.96240234375 1057.5999755859375 C 887.96240234375 1057.9200439453125 887.8424072265625 1058.1866455078125 887.6024169921875 1058.4000244140625 C 887.3624267578125 1058.6199951171875 886.8123779296875 1058.72998046875 885.952392578125 1058.72998046875 C 885.0857543945312 1058.72998046875 884.5324096679688 1058.6199951171875 884.2924194335938 1058.4000244140625 C 884.0524291992188 1058.1866455078125 883.9324340820312 1057.9200439453125 883.9324340820312 1057.5999755859375 M 884.1724243164062 1051.1400146484375 L 884.1724243164062 1057.5999755859375 C 884.1724243164062 1057.88671875 884.2957153320312 1058.106689453125 884.5424194335938 1058.260009765625 C 884.7890625 1058.413330078125 885.2590942382812 1058.489990234375 885.952392578125 1058.489990234375 C 886.6390991210938 1058.489990234375 887.105712890625 1058.413330078125 887.3524169921875 1058.260009765625 C 887.5990600585938 1058.106689453125 887.722412109375 1057.88671875 887.722412109375 1057.5999755859375 L 887.722412109375 1051.1400146484375 C 887.722412109375 1050.873291015625 887.5990600585938 1050.663330078125 887.3524169921875 1050.510009765625 C 887.105712890625 1050.356689453125 886.6390991210938 1050.280029296875 885.952392578125 1050.280029296875 C 885.279052734375 1050.280029296875 884.8123779296875 1050.356689453125 884.5524291992188 1050.510009765625 C 884.299072265625 1050.663330078125 884.1724243164062 1050.873291015625 884.1724243164062 1051.1400146484375 ZM 904.8782348632812 1053.760009765625 C 905.1715698242188 1053.760009765625 905.381591796875 1053.6966552734375 905.5082397460938 1053.5699462890625 C 905.6349487304688 1053.443359375 905.8348999023438 1053.1700439453125 906.1082763671875 1052.75 L 909.0382690429688 1048.2900390625 C 909.131591796875 1048.1300048828125 909.23828125 1048.02001953125 909.3582763671875 1047.9599609375 C 909.478271484375 1047.9066162109375 909.6015625 1047.8800048828125 909.728271484375 1047.8800048828125 L 910.1382446289062 1047.8800048828125 C 910.3649291992188 1047.8800048828125 910.5282592773438 1047.93994140625 910.6282348632812 1048.06005859375 C 910.7349243164062 1048.1800537109375 910.7882690429688 1048.36669921875 910.7882690429688 1048.6199951171875 L 910.7882690429688 1060.8399658203125 L 910.5482788085938 1060.8399658203125 L 910.5482788085938 1048.6199951171875 C 910.5482788085938 1048.4932861328125 910.5182495117188 1048.3800048828125 910.458251953125 1048.280029296875 C 910.4049072265625 1048.17333984375 910.2982788085938 1048.1199951171875 910.1382446289062 1048.1199951171875 L 909.7782592773438 1048.1199951171875 C 909.6649169921875 1048.1199951171875 909.5682373046875 1048.13671875 909.48828125 1048.1700439453125 C 909.4082641601562 1048.203369140625 909.3215942382812 1048.300048828125 909.228271484375 1048.4599609375 L 906.2982788085938 1052.8699951171875 C 906.0115966796875 1053.3033447265625 905.7915649414062 1053.5999755859375 905.6382446289062 1053.760009765625 C 905.4849243164062 1053.9200439453125 905.2315673828125 1054 904.8782348632812 1054 C 904.5316162109375 1054 904.2816162109375 1053.9200439453125 904.1282348632812 1053.760009765625 C 903.9749145507812 1053.5999755859375 903.7549438476562 1053.3033447265625 903.46826171875 1052.8699951171875 L 900.5382690429688 1048.4599609375 C 900.4449462890625 1048.300048828125 900.3515625 1048.203369140625 900.2582397460938 1048.1700439453125 C 900.1715698242188 1048.13671875 900.0715942382812 1048.1199951171875 899.958251953125 1048.1199951171875 L 899.5982666015625 1048.1199951171875 C 899.438232421875 1048.1199951171875 899.3348999023438 1048.17333984375 899.2882690429688 1048.280029296875 C 899.2415771484375 1048.3800048828125 899.21826171875 1048.4932861328125 899.21826171875 1048.6199951171875 L 899.21826171875 1060.8399658203125 L 898.978271484375 1060.8399658203125 L 898.978271484375 1048.6199951171875 C 898.978271484375 1048.36669921875 899.0316162109375 1048.1800537109375 899.1382446289062 1048.06005859375 C 899.23828125 1047.93994140625 899.3916015625 1047.8800048828125 899.5982666015625 1047.8800048828125 L 900.0082397460938 1047.8800048828125 C 900.1349487304688 1047.8800048828125 900.2649536132812 1047.9066162109375 900.3982543945312 1047.9599609375 C 900.52490234375 1048.02001953125 900.6349487304688 1048.1300048828125 900.728271484375 1048.2900390625 L 903.6582641601562 1052.75 C 903.9315795898438 1053.1700439453125 904.131591796875 1053.443359375 904.2582397460938 1053.5699462890625 C 904.3849487304688 1053.6966552734375 904.5916137695312 1053.760009765625 904.8782348632812 1053.760009765625 M 900.8782348632812 1063 C 901.1782836914062 1063 901.3982543945312 1062.933349609375 901.5382690429688 1062.800048828125 C 901.6715698242188 1062.6600341796875 901.73828125 1062.43994140625 901.73828125 1062.1400146484375 L 901.73828125 1053.68994140625 L 903.1582641601562 1056.300048828125 C 903.2982788085938 1056.5733642578125 903.46826171875 1056.77001953125 903.6682739257812 1056.8900146484375 C 903.8682861328125 1057.010009765625 904.12158203125 1057.0699462890625 904.4282836914062 1057.0699462890625 L 905.3882446289062 1057.0699462890625 C 905.688232421875 1057.0699462890625 905.938232421875 1057.010009765625 906.1382446289062 1056.8900146484375 C 906.3382568359375 1056.77001953125 906.5115966796875 1056.5733642578125 906.6582641601562 1056.300048828125 L 908.0782470703125 1053.68994140625 L 908.0782470703125 1062.1400146484375 C 908.0782470703125 1062.43994140625 908.1448974609375 1062.6600341796875 908.2782592773438 1062.800048828125 C 908.41162109375 1062.933349609375 908.631591796875 1063 908.938232421875 1063 L 912.6382446289062 1063 C 912.938232421875 1063 913.1582641601562 1062.933349609375 913.2982788085938 1062.800048828125 C 913.4315795898438 1062.6600341796875 913.4982299804688 1062.43994140625 913.4982299804688 1062.1400146484375 L 913.4982299804688 1046.5799560546875 C 913.4982299804688 1046.280029296875 913.4315795898438 1046.06005859375 913.2982788085938 1045.9200439453125 C 913.1582641601562 1045.78662109375 912.938232421875 1045.719970703125 912.6382446289062 1045.719970703125 L 908.7482299804688 1045.719970703125 C 908.48828125 1045.719970703125 908.27490234375 1045.776611328125 908.1082763671875 1045.8900146484375 C 907.9415893554688 1046.0032958984375 907.784912109375 1046.1866455078125 907.6382446289062 1046.43994140625 L 905.5082397460938 1050.3499755859375 C 905.4282836914062 1050.4967041015625 905.3582763671875 1050.5999755859375 905.2982788085938 1050.6600341796875 C 905.2449340820312 1050.7266845703125 905.1715698242188 1050.760009765625 905.0782470703125 1050.760009765625 L 904.8582763671875 1050.760009765625 C 904.7649536132812 1050.760009765625 904.688232421875 1050.7266845703125 904.6282348632812 1050.6600341796875 C 904.574951171875 1050.5999755859375 904.5082397460938 1050.4967041015625 904.4282836914062 1050.3499755859375 L 902.2682495117188 1046.43994140625 C 902.12158203125 1046.1866455078125 901.9649047851562 1046.0032958984375 901.7982788085938 1045.8900146484375 C 901.631591796875 1045.776611328125 901.4182739257812 1045.719970703125 901.1582641601562 1045.719970703125 L 897.2982788085938 1045.719970703125 C 896.9915771484375 1045.719970703125 896.7716064453125 1045.78662109375 896.6382446289062 1045.9200439453125 C 896.5049438476562 1046.06005859375 896.438232421875 1046.280029296875 896.438232421875 1046.5799560546875 L 896.438232421875 1062.1400146484375 C 896.438232421875 1062.43994140625 896.5049438476562 1062.6600341796875 896.6382446289062 1062.800048828125 C 896.7716064453125 1062.933349609375 896.9915771484375 1063 897.2982788085938 1063 L 900.8782348632812 1063 M 900.8782348632812 1063.239990234375 L 897.2982788085938 1063.239990234375 C 896.91162109375 1063.239990234375 896.631591796875 1063.1533203125 896.458251953125 1062.97998046875 C 896.284912109375 1062.800048828125 896.1982421875 1062.52001953125 896.1982421875 1062.1400146484375 L 896.1982421875 1046.5799560546875 C 896.1982421875 1046.199951171875 896.284912109375 1045.9200439453125 896.458251953125 1045.739990234375 C 896.631591796875 1045.566650390625 896.91162109375 1045.47998046875 897.2982788085938 1045.47998046875 L 901.1582641601562 1045.47998046875 C 901.4649047851562 1045.47998046875 901.71826171875 1045.5433349609375 901.9182739257812 1045.6700439453125 C 902.1182861328125 1045.796630859375 902.304931640625 1046.0133056640625 902.478271484375 1046.3199462890625 L 904.6382446289062 1050.22998046875 C 904.6715698242188 1050.296630859375 904.7015991210938 1050.3599853515625 904.728271484375 1050.4200439453125 C 904.7482299804688 1050.4866943359375 904.7915649414062 1050.52001953125 904.8582763671875 1050.52001953125 L 905.0782470703125 1050.52001953125 C 905.1382446289062 1050.52001953125 905.1815795898438 1050.4866943359375 905.208251953125 1050.4200439453125 C 905.228271484375 1050.3599853515625 905.2549438476562 1050.296630859375 905.2882690429688 1050.22998046875 L 907.4282836914062 1046.3199462890625 C 907.6015625 1046.0133056640625 907.7882690429688 1045.796630859375 907.98828125 1045.6700439453125 C 908.188232421875 1045.5433349609375 908.4415893554688 1045.47998046875 908.7482299804688 1045.47998046875 L 912.6382446289062 1045.47998046875 C 913.0182495117188 1045.47998046875 913.2982788085938 1045.566650390625 913.478271484375 1045.739990234375 C 913.651611328125 1045.9200439453125 913.73828125 1046.199951171875 913.73828125 1046.5799560546875 L 913.73828125 1062.1400146484375 C 913.73828125 1062.52001953125 913.651611328125 1062.800048828125 913.478271484375 1062.97998046875 C 913.2982788085938 1063.1533203125 913.0182495117188 1063.239990234375 912.6382446289062 1063.239990234375 L 908.938232421875 1063.239990234375 C 908.5382690429688 1063.239990234375 908.2549438476562 1063.1533203125 908.0882568359375 1062.97998046875 C 907.9215698242188 1062.800048828125 907.8382568359375 1062.52001953125 907.8382568359375 1062.1400146484375 L 907.8382568359375 1054.6500244140625 L 906.8782348632812 1056.4200439453125 C 906.71826171875 1056.7266845703125 906.5182495117188 1056.953369140625 906.2782592773438 1057.0999755859375 C 906.0382690429688 1057.239990234375 905.7415771484375 1057.31005859375 905.3882446289062 1057.31005859375 L 904.4282836914062 1057.31005859375 C 904.074951171875 1057.31005859375 903.7782592773438 1057.239990234375 903.5382690429688 1057.0999755859375 C 903.2982788085938 1056.953369140625 903.0982666015625 1056.7266845703125 902.938232421875 1056.4200439453125 L 901.978271484375 1054.6500244140625 L 901.978271484375 1062.1400146484375 C 901.978271484375 1062.52001953125 901.8916015625 1062.800048828125 901.71826171875 1062.97998046875 C 901.5382690429688 1063.1533203125 901.2582397460938 1063.239990234375 900.8782348632812 1063.239990234375 Z" transform="matrix(6.986738204956055, 0, 0, 6.986738204956055, -5067.4375, -6542.103515625)" style="fill: rgb(51, 51, 51); white-space: pre; color: rgb(51, 51, 51);"/><path d="M 751.36865234375 1114.0400390625 C 751.36865234375 1115.260009765625 751.2886352539062 1116.3199462890625 751.128662109375 1117.219970703125 C 750.9686279296875 1118.1199951171875 750.6953125 1118.86669921875 750.3086547851562 1119.4599609375 C 749.9219970703125 1120.06005859375 749.4052734375 1120.5032958984375 748.7586059570312 1120.7900390625 C 748.1119384765625 1121.0833740234375 747.2986450195312 1121.22998046875 746.318603515625 1121.22998046875 C 745.6586303710938 1121.22998046875 745.031982421875 1121.193359375 744.4386596679688 1121.1199951171875 C 743.8519897460938 1121.0400390625 743.3219604492188 1120.9000244140625 742.8486328125 1120.699951171875 C 742.3819580078125 1120.4932861328125 741.9819946289062 1120.21337890625 741.6486206054688 1119.8599853515625 C 741.3153076171875 1119.5 741.0753173828125 1119.0433349609375 740.9286499023438 1118.489990234375 C 740.9019775390625 1118.4300537109375 740.8886108398438 1118.336669921875 740.8886108398438 1118.2099609375 C 740.8886108398438 1118.056640625 740.92529296875 1117.943359375 740.9986572265625 1117.8699951171875 C 741.07861328125 1117.7900390625 741.1719360351562 1117.75 741.2786254882812 1117.75 C 741.3853149414062 1117.75 741.4852905273438 1117.7900390625 741.57861328125 1117.8699951171875 C 741.6786499023438 1117.943359375 741.7486572265625 1118.050048828125 741.7886352539062 1118.18994140625 C 741.915283203125 1118.72998046875 742.1319580078125 1119.1466064453125 742.4386596679688 1119.43994140625 C 742.751953125 1119.739990234375 743.1219482421875 1119.96337890625 743.5486450195312 1120.1099853515625 C 743.9686279296875 1120.2567138671875 744.4186401367188 1120.3466796875 744.8986206054688 1120.3800048828125 C 745.3853149414062 1120.413330078125 745.858642578125 1120.4300537109375 746.318603515625 1120.4300537109375 C 747.1453247070312 1120.4300537109375 747.8253173828125 1120.2900390625 748.358642578125 1120.010009765625 C 748.8853149414062 1119.72998046875 749.2952880859375 1119.3233642578125 749.588623046875 1118.7900390625 C 749.8886108398438 1118.25 750.0952758789062 1117.5833740234375 750.2086181640625 1116.7900390625 C 750.3219604492188 1115.9967041015625 750.378662109375 1115.0799560546875 750.378662109375 1114.0400390625 L 750.378662109375 1108.77001953125 C 750.378662109375 1108.5433349609375 750.4086303710938 1108.3499755859375 750.4686279296875 1108.18994140625 C 750.5286254882812 1108.030029296875 750.6719970703125 1107.949951171875 750.8986206054688 1107.949951171875 C 751.0053100585938 1107.949951171875 751.088623046875 1107.973388671875 751.1486206054688 1108.02001953125 C 751.2086181640625 1108.0733642578125 751.2553100585938 1108.13671875 751.2886352539062 1108.2099609375 C 751.3219604492188 1108.2900390625 751.3452758789062 1108.3800048828125 751.358642578125 1108.47998046875 C 751.3652954101562 1108.5733642578125 751.36865234375 1108.6700439453125 751.36865234375 1108.77001953125 L 751.36865234375 1114.0400390625 ZM 758.7720947265625 1108.719970703125 L 754.5921020507812 1108.719970703125 C 754.4921264648438 1108.719970703125 754.3887939453125 1108.719970703125 754.2821044921875 1108.719970703125 C 754.18212890625 1108.719970703125 754.0921020507812 1108.7066650390625 754.0121459960938 1108.6800537109375 C 753.93212890625 1108.6600341796875 753.865478515625 1108.623291015625 753.8121337890625 1108.5699462890625 C 753.7587890625 1108.5233154296875 753.7321166992188 1108.453369140625 753.7321166992188 1108.3599853515625 C 753.7321166992188 1108.239990234375 753.7621459960938 1108.1533203125 753.8221435546875 1108.0999755859375 C 753.8754272460938 1108.046630859375 753.942138671875 1108.0067138671875 754.0220947265625 1107.97998046875 C 754.1021118164062 1107.9599609375 754.1954345703125 1107.949951171875 754.3021240234375 1107.949951171875 C 754.402099609375 1107.949951171875 754.498779296875 1107.949951171875 754.5921020507812 1107.949951171875 L 763.9520874023438 1107.949951171875 C 764.0721435546875 1107.949951171875 764.18212890625 1107.949951171875 764.2821044921875 1107.949951171875 C 764.3821411132812 1107.949951171875 764.4688110351562 1107.9599609375 764.5421142578125 1107.97998046875 C 764.6221313476562 1108.0067138671875 764.6854248046875 1108.046630859375 764.7321166992188 1108.0999755859375 C 764.77880859375 1108.1533203125 764.8021240234375 1108.22998046875 764.8021240234375 1108.3299560546875 C 764.8021240234375 1108.443359375 764.77880859375 1108.5233154296875 764.7321166992188 1108.5699462890625 C 764.6854248046875 1108.623291015625 764.6221313476562 1108.6600341796875 764.5421142578125 1108.6800537109375 C 764.4688110351562 1108.7066650390625 764.3821411132812 1108.719970703125 764.2821044921875 1108.719970703125 C 764.18212890625 1108.719970703125 764.0721435546875 1108.719970703125 763.9520874023438 1108.719970703125 L 759.7720947265625 1108.719970703125 L 759.7720947265625 1120.22998046875 L 763.9520874023438 1120.22998046875 C 764.0721435546875 1120.22998046875 764.18212890625 1120.22998046875 764.2821044921875 1120.22998046875 C 764.3821411132812 1120.22998046875 764.4688110351562 1120.239990234375 764.5421142578125 1120.260009765625 C 764.6221313476562 1120.28662109375 764.6854248046875 1120.32666015625 764.7321166992188 1120.3800048828125 C 764.77880859375 1120.433349609375 764.8021240234375 1120.510009765625 764.8021240234375 1120.6099853515625 C 764.8021240234375 1120.723388671875 764.77880859375 1120.8033447265625 764.7321166992188 1120.8499755859375 C 764.6854248046875 1120.9033203125 764.6221313476562 1120.93994140625 764.5421142578125 1120.9599609375 C 764.4688110351562 1120.9866943359375 764.3821411132812 1121 764.2821044921875 1121 C 764.18212890625 1121 764.0721435546875 1121 763.9520874023438 1121 L 754.5921020507812 1121 C 754.498779296875 1121 754.402099609375 1121 754.3021240234375 1121 C 754.1954345703125 1121 754.1021118164062 1120.9866943359375 754.0220947265625 1120.9599609375 C 753.942138671875 1120.93994140625 753.8754272460938 1120.9033203125 753.8221435546875 1120.8499755859375 C 753.7621459960938 1120.796630859375 753.7321166992188 1120.7099609375 753.7321166992188 1120.5899658203125 C 753.7321166992188 1120.4967041015625 753.7587890625 1120.42333984375 753.8121337890625 1120.3699951171875 C 753.865478515625 1120.3233642578125 753.93212890625 1120.28662109375 754.0121459960938 1120.260009765625 C 754.0921020507812 1120.239990234375 754.18212890625 1120.22998046875 754.2821044921875 1120.22998046875 C 754.3887939453125 1120.22998046875 754.4921264648438 1120.22998046875 754.5921020507812 1120.22998046875 L 758.7720947265625 1120.22998046875 L 758.7720947265625 1108.719970703125 ZM 780.333984375 1119.5 L 780.333984375 1108.8399658203125 C 780.333984375 1108.719970703125 780.3406372070312 1108.606689453125 780.3539428710938 1108.5 C 780.3606567382812 1108.393310546875 780.380615234375 1108.300048828125 780.4139404296875 1108.219970703125 C 780.4473266601562 1108.1400146484375 780.497314453125 1108.0733642578125 780.56396484375 1108.02001953125 C 780.630615234375 1107.973388671875 780.7239379882812 1107.949951171875 780.843994140625 1107.949951171875 C 781.0439453125 1107.949951171875 781.1773071289062 1108.03662109375 781.2439575195312 1108.2099609375 C 781.303955078125 1108.38330078125 781.333984375 1108.5933837890625 781.333984375 1108.8399658203125 L 781.333984375 1120.25 C 781.333984375 1120.75 781.2006225585938 1121 780.9339599609375 1121 C 780.7539672851562 1121 780.5306396484375 1120.8800048828125 780.2639770507812 1120.6400146484375 L 768.1839599609375 1109.449951171875 L 768.1839599609375 1120.1800537109375 C 768.1839599609375 1120.4066162109375 768.150634765625 1120.5999755859375 768.083984375 1120.760009765625 C 768.0172729492188 1120.9200439453125 767.890625 1121 767.7039794921875 1121 C 767.477294921875 1121 767.333984375 1120.9200439453125 767.2739868164062 1120.760009765625 C 767.2206420898438 1120.5999755859375 767.1939697265625 1120.4066162109375 767.1939697265625 1120.1800537109375 L 767.1939697265625 1108.7099609375 C 767.1939697265625 1108.4766845703125 767.2339477539062 1108.296630859375 767.31396484375 1108.1700439453125 C 767.400634765625 1108.0433349609375 767.5206298828125 1107.97998046875 767.6739501953125 1107.97998046875 C 767.8673095703125 1107.97998046875 768.093994140625 1108.0966796875 768.3539428710938 1108.3299560546875 L 780.333984375 1119.5 ZM 799.9224243164062 1117.3599853515625 C 799.9224243164062 1117.8599853515625 799.8324584960938 1118.3033447265625 799.6524658203125 1118.68994140625 C 799.4724731445312 1119.07666015625 799.2224731445312 1119.4100341796875 798.9024658203125 1119.68994140625 C 798.5824584960938 1119.9766845703125 798.2024536132812 1120.219970703125 797.762451171875 1120.4200439453125 C 797.3224487304688 1120.6199951171875 796.8457641601562 1120.780029296875 796.3324584960938 1120.9000244140625 C 795.8124389648438 1121.02001953125 795.262451171875 1121.106689453125 794.6824340820312 1121.1600341796875 C 794.1024780273438 1121.2066650390625 793.512451171875 1121.22998046875 792.9124755859375 1121.22998046875 C 792.0791015625 1121.22998046875 791.2491455078125 1121.18994140625 790.4224243164062 1121.1099853515625 C 789.5957641601562 1121.0233154296875 788.8224487304688 1120.913330078125 788.1024780273438 1120.780029296875 C 787.3824462890625 1120.6533203125 786.7457885742188 1120.5167236328125 786.1924438476562 1120.3699951171875 C 785.6458129882812 1120.2166748046875 785.2324829101562 1120.07666015625 784.9524536132812 1119.949951171875 C 784.839111328125 1119.8900146484375 784.7590942382812 1119.8199462890625 784.7124633789062 1119.739990234375 C 784.6591186523438 1119.6600341796875 784.6324462890625 1119.57666015625 784.6324462890625 1119.489990234375 C 784.6324462890625 1119.3966064453125 784.6591186523438 1119.316650390625 784.7124633789062 1119.25 C 784.7590942382812 1119.183349609375 784.8324584960938 1119.1500244140625 784.9324340820312 1119.1500244140625 C 784.9791259765625 1119.1500244140625 785.0357666015625 1119.1600341796875 785.1024780273438 1119.1800537109375 C 785.4091186523438 1119.306640625 785.8457641601562 1119.443359375 786.4124755859375 1119.5899658203125 C 786.9857788085938 1119.7432861328125 787.6324462890625 1119.88330078125 788.3524780273438 1120.010009765625 C 789.0724487304688 1120.13671875 789.8424682617188 1120.2432861328125 790.6624755859375 1120.3299560546875 C 791.4757690429688 1120.4166259765625 792.2857666015625 1120.4599609375 793.0924682617188 1120.4599609375 C 793.8724365234375 1120.4599609375 794.6157836914062 1120.4100341796875 795.3224487304688 1120.31005859375 C 796.0224609375 1120.2099609375 796.6390991210938 1120.03662109375 797.1724243164062 1119.7900390625 C 797.7124633789062 1119.550048828125 798.1390991210938 1119.22998046875 798.4524536132812 1118.8299560546875 C 798.7724609375 1118.4300537109375 798.9324340820312 1117.93994140625 798.9324340820312 1117.3599853515625 C 798.9324340820312 1116.86669921875 798.7957763671875 1116.4599609375 798.5224609375 1116.1400146484375 C 798.2557983398438 1115.82666015625 797.8924560546875 1115.5733642578125 797.4324340820312 1115.3800048828125 C 796.9724731445312 1115.1866455078125 796.4324340820312 1115.0433349609375 795.8124389648438 1114.949951171875 C 795.1924438476562 1114.8499755859375 794.5391235351562 1114.7733154296875 793.8524780273438 1114.719970703125 C 793.1591186523438 1114.67333984375 792.44580078125 1114.63671875 791.7124633789062 1114.6099853515625 C 790.9791259765625 1114.5833740234375 790.2658081054688 1114.53662109375 789.5724487304688 1114.469970703125 C 788.879150390625 1114.4100341796875 788.2257690429688 1114.3199462890625 787.6124267578125 1114.199951171875 C 786.992431640625 1114.086669921875 786.4524536132812 1113.9166259765625 785.992431640625 1113.68994140625 C 785.532470703125 1113.46337890625 785.165771484375 1113.1700439453125 784.8924560546875 1112.81005859375 C 784.6257934570312 1112.449951171875 784.492431640625 1111.9967041015625 784.492431640625 1111.449951171875 C 784.492431640625 1110.949951171875 784.5858154296875 1110.5067138671875 784.7724609375 1110.1199951171875 C 784.9591064453125 1109.739990234375 785.2157592773438 1109.4100341796875 785.54248046875 1109.1300048828125 C 785.8757934570312 1108.856689453125 786.2658081054688 1108.626708984375 786.7124633789062 1108.43994140625 C 787.1591186523438 1108.260009765625 787.6458129882812 1108.11328125 788.1724243164062 1108 C 788.705810546875 1107.893310546875 789.262451171875 1107.816650390625 789.8424682617188 1107.77001953125 C 790.4224243164062 1107.723388671875 791.0057983398438 1107.699951171875 791.5924682617188 1107.699951171875 C 792.319091796875 1107.699951171875 793.0357666015625 1107.7332763671875 793.742431640625 1107.800048828125 C 794.4424438476562 1107.86669921875 795.1024780273438 1107.9566650390625 795.7224731445312 1108.0699462890625 C 796.3358154296875 1108.183349609375 796.8890991210938 1108.306640625 797.3824462890625 1108.43994140625 C 797.8757934570312 1108.5799560546875 798.2691040039062 1108.719970703125 798.5624389648438 1108.8599853515625 C 798.629150390625 1108.893310546875 798.67578125 1108.9366455078125 798.7024536132812 1108.989990234375 C 798.7357788085938 1109.050048828125 798.75244140625 1109.11328125 798.75244140625 1109.1800537109375 C 798.75244140625 1109.28662109375 798.7157592773438 1109.38671875 798.6424560546875 1109.47998046875 C 798.569091796875 1109.5733642578125 798.4657592773438 1109.6199951171875 798.3324584960938 1109.6199951171875 C 798.25244140625 1109.6199951171875 798.185791015625 1109.6033935546875 798.1324462890625 1109.5699462890625 C 797.7191162109375 1109.4033203125 797.2590942382812 1109.25 796.75244140625 1109.1099853515625 C 796.25244140625 1108.9766845703125 795.7191162109375 1108.86328125 795.1524658203125 1108.77001953125 C 794.5924682617188 1108.6700439453125 794.012451171875 1108.5966796875 793.4124755859375 1108.550048828125 C 792.819091796875 1108.4967041015625 792.2291259765625 1108.469970703125 791.6424560546875 1108.469970703125 C 790.8291015625 1108.469970703125 790.0524291992188 1108.5167236328125 789.3124389648438 1108.6099853515625 C 788.5657958984375 1108.703369140625 787.9091186523438 1108.86328125 787.3424682617188 1109.0899658203125 C 786.7757568359375 1109.31005859375 786.3258056640625 1109.606689453125 785.992431640625 1109.97998046875 C 785.6591186523438 1110.3533935546875 785.492431640625 1110.8199462890625 785.492431640625 1111.3800048828125 C 785.492431640625 1111.806640625 785.6257934570312 1112.1566162109375 785.8924560546875 1112.4300537109375 C 786.1591186523438 1112.6966552734375 786.5257568359375 1112.913330078125 786.992431640625 1113.0799560546875 C 787.4524536132812 1113.239990234375 787.9891357421875 1113.36328125 788.6024780273438 1113.449951171875 C 789.2224731445312 1113.530029296875 789.879150390625 1113.5933837890625 790.5724487304688 1113.6400146484375 C 791.2590942382812 1113.6866455078125 791.9691162109375 1113.7266845703125 792.7024536132812 1113.760009765625 C 793.4424438476562 1113.800048828125 794.15576171875 1113.8599853515625 794.8424682617188 1113.93994140625 C 795.5357666015625 1114.02001953125 796.1924438476562 1114.13330078125 796.8124389648438 1114.280029296875 C 797.42578125 1114.4266357421875 797.9624633789062 1114.626708984375 798.4224243164062 1114.8800048828125 C 798.8824462890625 1115.1400146484375 799.2491455078125 1115.469970703125 799.5224609375 1115.8699951171875 C 799.7891235351562 1116.276611328125 799.9224243164062 1116.7733154296875 799.9224243164062 1117.3599853515625 ZM 808.537109375 1108.5400390625 C 808.663818359375 1108.3133544921875 808.7604370117188 1108.1566162109375 808.8271484375 1108.0699462890625 C 808.9004516601562 1107.989990234375 809.0071411132812 1107.949951171875 809.1471557617188 1107.949951171875 C 809.2537841796875 1107.949951171875 809.3504638671875 1107.989990234375 809.4371337890625 1108.0699462890625 C 809.5171508789062 1108.1500244140625 809.623779296875 1108.306640625 809.7571411132812 1108.5400390625 L 816.2271118164062 1120.2099609375 C 816.3137817382812 1120.3699951171875 816.3571166992188 1120.5233154296875 816.3571166992188 1120.6700439453125 C 816.3571166992188 1120.81005859375 816.317138671875 1120.9200439453125 816.2371215820312 1121 C 816.1571044921875 1121.0799560546875 816.0637817382812 1121.1199951171875 815.9571533203125 1121.1199951171875 C 815.8438110351562 1121.1199951171875 815.7338256835938 1121.0833740234375 815.6271362304688 1121.010009765625 C 815.5271606445312 1120.9300537109375 815.4204711914062 1120.7933349609375 815.30712890625 1120.5999755859375 L 813.317138671875 1116.989990234375 L 804.9771118164062 1116.989990234375 L 802.9571533203125 1120.6500244140625 C 802.8704833984375 1120.81005859375 802.7704467773438 1120.9300537109375 802.6571044921875 1121.010009765625 C 802.5438232421875 1121.0833740234375 802.4337768554688 1121.1199951171875 802.3271484375 1121.1199951171875 C 802.1937866210938 1121.1199951171875 802.0971069335938 1121.0733642578125 802.037109375 1120.97998046875 C 801.970458984375 1120.88671875 801.9371337890625 1120.760009765625 801.9371337890625 1120.5999755859375 C 801.9371337890625 1120.5400390625 801.950439453125 1120.4766845703125 801.9771118164062 1120.4100341796875 C 802.0037841796875 1120.3499755859375 802.037109375 1120.280029296875 802.0771484375 1120.199951171875 L 808.537109375 1108.5400390625 M 812.9771118164062 1116.300048828125 L 809.1471557617188 1109.300048828125 L 805.317138671875 1116.300048828125 L 812.9771118164062 1116.300048828125 ZM 827.4163818359375 1119.3699951171875 L 834.6864013671875 1108.449951171875 C 834.7997436523438 1108.27001953125 834.9163818359375 1108.1400146484375 835.036376953125 1108.06005859375 C 835.1563720703125 1107.9866943359375 835.2763671875 1107.949951171875 835.3964233398438 1107.949951171875 C 835.5430908203125 1107.949951171875 835.6663818359375 1108.010009765625 835.7664184570312 1108.1300048828125 C 835.8663940429688 1108.25 835.9163818359375 1108.4000244140625 835.9163818359375 1108.5799560546875 L 835.9163818359375 1120.1800537109375 C 835.9163818359375 1120.4066162109375 835.8864135742188 1120.5999755859375 835.826416015625 1120.760009765625 C 835.7730712890625 1120.9200439453125 835.633056640625 1121 835.4063720703125 1121 C 835.2130737304688 1121 835.0830688476562 1120.9200439453125 835.0164184570312 1120.760009765625 C 834.94970703125 1120.5999755859375 834.9163818359375 1120.4066162109375 834.9163818359375 1120.1800537109375 L 834.9163818359375 1109.77001953125 L 827.9863891601562 1119.989990234375 C 827.7997436523438 1120.2567138671875 827.6097412109375 1120.3900146484375 827.4163818359375 1120.3900146484375 C 827.2030639648438 1120.3900146484375 827.0130615234375 1120.2567138671875 826.8463745117188 1119.989990234375 L 819.9163818359375 1109.77001953125 L 819.9163818359375 1120.1800537109375 C 819.9163818359375 1120.4066162109375 819.883056640625 1120.5999755859375 819.81640625 1120.760009765625 C 819.749755859375 1120.9200439453125 819.6197509765625 1121 819.4263916015625 1121 C 819.19970703125 1121 819.0597534179688 1120.9200439453125 819.0064086914062 1120.760009765625 C 818.9464111328125 1120.5999755859375 818.9163818359375 1120.4066162109375 818.9163818359375 1120.1800537109375 L 818.9163818359375 1108.5799560546875 C 818.9163818359375 1108.4000244140625 818.9663696289062 1108.25 819.06640625 1108.1300048828125 C 819.1663818359375 1108.010009765625 819.2897338867188 1107.949951171875 819.4364013671875 1107.949951171875 C 819.5430908203125 1107.949951171875 819.6563720703125 1107.9866943359375 819.7763671875 1108.06005859375 C 819.903076171875 1108.1400146484375 820.0263671875 1108.27001953125 820.1464233398438 1108.449951171875 L 827.4163818359375 1119.3699951171875 ZM 845.062744140625 1108.5400390625 C 845.189453125 1108.3133544921875 845.2860717773438 1108.1566162109375 845.352783203125 1108.0699462890625 C 845.4260864257812 1107.989990234375 845.5327758789062 1107.949951171875 845.6727905273438 1107.949951171875 C 845.7794189453125 1107.949951171875 845.8760986328125 1107.989990234375 845.9627685546875 1108.0699462890625 C 846.0427856445312 1108.1500244140625 846.1494140625 1108.306640625 846.2827758789062 1108.5400390625 L 852.7527465820312 1120.2099609375 C 852.8394165039062 1120.3699951171875 852.8827514648438 1120.5233154296875 852.8827514648438 1120.6700439453125 C 852.8827514648438 1120.81005859375 852.8427734375 1120.9200439453125 852.7627563476562 1121 C 852.6827392578125 1121.0799560546875 852.5894165039062 1121.1199951171875 852.4827880859375 1121.1199951171875 C 852.3694458007812 1121.1199951171875 852.2594604492188 1121.0833740234375 852.1527709960938 1121.010009765625 C 852.0527954101562 1120.9300537109375 851.9461059570312 1120.7933349609375 851.832763671875 1120.5999755859375 L 849.8427734375 1116.989990234375 L 841.5027465820312 1116.989990234375 L 839.4827880859375 1120.6500244140625 C 839.3961181640625 1120.81005859375 839.2960815429688 1120.9300537109375 839.1827392578125 1121.010009765625 C 839.0694580078125 1121.0833740234375 838.9594116210938 1121.1199951171875 838.852783203125 1121.1199951171875 C 838.7194213867188 1121.1199951171875 838.6227416992188 1121.0733642578125 838.562744140625 1120.97998046875 C 838.49609375 1120.88671875 838.4627685546875 1120.760009765625 838.4627685546875 1120.5999755859375 C 838.4627685546875 1120.5400390625 838.47607421875 1120.4766845703125 838.5027465820312 1120.4100341796875 C 838.5294189453125 1120.3499755859375 838.562744140625 1120.280029296875 838.602783203125 1120.199951171875 L 845.062744140625 1108.5400390625 M 849.5027465820312 1116.300048828125 L 845.6727905273438 1109.300048828125 L 841.8427734375 1116.300048828125 L 849.5027465820312 1116.300048828125 Z" transform="matrix(4.427744388580322, 0, 0, 4.427744388580322, -2590.938720703125, -3927.979736328125)" style="fill: rgb(51, 51, 51); white-space: pre; color: rgb(51, 51, 51);"/></svg>